<svg width="189" height="44" viewBox="0 0 189 44" fill="none" xmlns="http://www.w3.org/2000/svg">
<mask id="mask0_965_271" style="mask-type:luminance" maskUnits="userSpaceOnUse" x="0" y="0" width="43" height="44">
<path d="M43 0H0V43.4562H43V0Z" fill="white"/>
</mask>
<g mask="url(#mask0_965_271)">
<path d="M21.4039 0.000152105C33.2769 -0.0523395 42.946 9.59744 42.9998 21.5571C43.049 32.5383 34.9742 41.6468 24.4619 43.1058C16.3878 44.2445 8.47669 40.7766 3.85435 34.0298C1.44295 30.5482 0.0207486 26.3186 0.000225041 21.7523C-0.0535284 9.79266 9.52924 0.0542905 21.4039 0.000152105ZM21.4098 1.3439C10.2862 1.39462 1.29348 10.5197 1.34393 21.7463C1.36163 25.684 2.48945 29.3531 4.42635 32.4554C5.78648 28.7326 6.0238 25.2617 6.39386 20.7894C6.70002 16.0616 7.96611 12.1348 15.948 9.91934C17.7026 9.49497 19.5285 9.6315 21.3773 10.0501C24.2163 9.51235 27.3625 9.42136 29.4603 12.8899C30.4573 13.2723 31.4407 13.6256 32.4031 13.9059L32.4015 13.9043C40.6207 16.1638 39.8339 20.6808 35.8269 24.4654C34.8103 25.5256 33.7152 26.5251 33.0094 27.2488C30.1312 30.1993 25.1811 35.7648 25.2146 41.6213C34.6023 39.8586 41.7009 31.541 41.656 21.5632C41.6056 10.3366 32.5318 1.29472 21.4098 1.3439ZM18.45 12.1331C16.1549 12.1331 14.2931 14.0049 14.293 16.3181C14.2931 18.6313 16.1549 20.5049 18.45 20.5049C20.7451 20.5049 22.6069 18.6313 22.6069 16.3181C22.6069 14.0066 20.7451 12.1331 18.45 12.1331ZM18.45 12.8049C18.8217 12.8049 19.1801 12.8638 19.5165 12.9727C18.8001 13.2188 18.208 13.9078 17.8969 14.8205L20.0998 16.2891L17.8967 17.7578C18.2207 18.7088 18.8496 19.4171 19.6064 19.6347C19.2443 19.7632 18.855 19.833 18.45 19.833C16.5303 19.833 14.965 18.2646 14.9649 16.3181C14.965 14.372 16.5299 12.8049 18.45 12.8049Z" fill="white"/>
</g>
<g clip-path="url(#clip0_965_271)">
<mask id="mask1_965_271" style="mask-type:luminance" maskUnits="userSpaceOnUse" x="60" y="8" width="129" height="27">
<path d="M188.079 8.82175H60V34.6838H188.079V8.82175Z" fill="white"/>
</mask>
<g mask="url(#mask1_965_271)">
<path d="M180.623 15.2872C182.703 15.2872 184.38 15.9244 185.654 17.1987C186.947 18.4543 187.594 20.0847 187.594 22.0899C187.594 24.0951 186.947 25.7349 185.654 27.0093C184.38 28.2648 182.703 28.8927 180.623 28.8927C178.524 28.8927 176.828 28.2648 175.534 27.0093C174.26 25.7349 173.623 24.0951 173.623 22.0899C173.623 20.0847 174.26 18.4543 175.534 17.1987C176.828 15.9244 178.524 15.2872 180.623 15.2872ZM178.374 24.7323C178.936 25.407 179.686 25.7442 180.623 25.7442C181.56 25.7442 182.3 25.407 182.843 24.7323C183.405 24.0577 183.687 23.1769 183.687 22.0899C183.687 21.003 183.405 20.1222 182.843 19.4475C182.3 18.7729 181.56 18.4356 180.623 18.4356C179.686 18.4356 178.936 18.7729 178.374 19.4475C177.811 20.1222 177.53 21.003 177.53 22.0899C177.53 23.1769 177.811 24.0577 178.374 24.7323Z" fill="white"/>
<path d="M150.971 15.2872C152.676 15.2872 154.026 15.737 155.019 16.6365C156.031 17.5173 156.537 18.623 156.537 19.9535L156.453 20.9374L153.051 21.1342C153.089 21.0592 153.107 20.8624 153.107 20.5438C153.107 19.9442 152.911 19.4475 152.517 19.054C152.142 18.6417 151.608 18.4356 150.915 18.4356C150.034 18.4356 149.322 18.7635 148.778 19.4194C148.254 20.0754 147.991 20.9374 147.991 22.0056C147.991 23.1675 148.282 24.0857 148.863 24.7604C149.462 25.4163 150.315 25.7442 151.421 25.7442C152.995 25.7442 154.204 25.229 155.047 24.1982L156.93 26.6157C156.443 27.2342 155.703 27.7683 154.71 28.2181C153.717 28.6677 152.536 28.8927 151.168 28.8927C148.975 28.8927 147.242 28.2742 145.967 27.0373C144.712 25.7817 144.084 24.1513 144.084 22.1461C144.084 20.1035 144.721 18.4543 145.995 17.1987C147.27 15.9244 148.928 15.2872 150.971 15.2872Z" fill="white"/>
<path d="M136.959 25.9691C138.327 25.9691 139.47 25.4632 140.388 24.4513L142.216 26.5594C141.71 27.2153 140.96 27.7683 139.967 28.2181C138.992 28.6677 137.84 28.8927 136.509 28.8927C134.317 28.8927 132.574 28.2648 131.281 27.0093C130.006 25.7537 129.369 24.1139 129.369 22.0899C129.369 20.0847 129.988 18.4543 131.224 17.1987C132.461 15.9244 134.101 15.2872 136.144 15.2872C138.036 15.2872 139.526 15.8682 140.613 17.03C141.7 18.192 142.244 19.7005 142.244 21.5558L142.131 22.9613H133.192C133.361 23.8797 133.764 24.6105 134.401 25.1539C135.038 25.6975 135.891 25.9691 136.959 25.9691ZM136.144 18.2107C135.375 18.2107 134.72 18.4543 134.176 18.9416C133.651 19.4101 133.323 20.0847 133.192 20.9655H138.73C138.711 20.1597 138.468 19.5038 137.999 18.9978C137.549 18.473 136.931 18.2107 136.144 18.2107Z" fill="white"/>
<path d="M123.86 15.4559H126.895V28.2181C126.895 30.167 126.221 31.7318 124.872 32.9124C123.522 34.093 121.714 34.6834 119.446 34.6834C117.029 34.6834 115.042 34.1586 113.487 33.1093L113.871 30.4547C115.09 31.373 117.694 31.5913 119.362 31.5913C120.486 31.5913 121.376 31.3101 122.032 30.748C122.707 30.2044 123.044 29.3987 123.044 28.3304V26.7001C122.182 27.9556 120.852 28.5835 119.053 28.5835C117.291 28.5835 115.848 28.0025 114.724 26.8406C113.599 25.6599 113.037 24.0202 113.037 21.9213C113.037 19.9161 113.571 18.3138 114.639 17.1144C115.708 15.8963 117.15 15.2872 118.968 15.2872C121.086 15.2872 122.538 16.1774 123.325 17.9577H123.41C123.391 17.7516 123.429 17.3767 123.522 16.8333C123.616 16.2898 123.728 15.8307 123.86 15.4559ZM120.008 25.3508C120.927 25.3508 121.658 25.0321 122.201 24.395C122.763 23.739 123.044 23.0176 123.044 22.2305V21.6402C123.044 20.7968 122.763 20.066 122.201 19.4475C121.639 18.8291 120.88 18.5199 119.924 18.5199C119.025 18.5199 118.303 18.8291 117.76 19.4475C117.216 20.066 116.944 20.8905 116.944 21.9213C116.944 22.9707 117.216 23.8047 117.76 24.4231C118.322 25.0416 119.071 25.3508 120.008 25.3508Z" fill="white"/>
<path d="M105.69 15.2872C107.283 15.2872 108.501 15.7745 109.344 16.7489C110.206 17.7234 110.637 18.9978 110.637 20.572V28.724H106.786V21.2466C106.786 20.4408 106.58 19.8036 106.168 19.3351C105.774 18.8479 105.203 18.6042 104.453 18.6042C103.535 18.6042 102.832 18.9322 102.345 19.5881C101.876 20.244 101.642 21.003 101.642 21.8651V28.724H97.791V15.4559L100.799 15.3434C101.117 16.3367 101.277 17.2643 101.277 18.1263H101.389C102.157 16.2336 103.591 15.2872 105.69 15.2872Z" fill="white"/>
<path d="M95.204 11.2111C95.204 11.9045 94.9604 12.476 94.4732 12.9258C93.986 13.3756 93.3956 13.6005 92.7022 13.6005C92.0088 13.6005 91.4185 13.3756 90.9313 12.9258C90.4628 12.476 90.2285 11.9045 90.2285 11.2111C90.2285 10.5364 90.4628 9.97421 90.9313 9.52445C91.4185 9.05594 92.0088 8.82169 92.7022 8.82169C93.3956 8.82169 93.986 9.05594 94.4732 9.52445C94.9604 9.97421 95.204 10.5364 95.204 11.2111ZM90.7626 28.7239V15.4557L94.6137 15.3433V28.7239H90.7626Z" fill="white"/>
<path d="M81.3276 15.2872C83.4078 15.2872 85.0851 15.9244 86.3593 17.1987C87.6524 18.4543 88.299 20.0847 88.299 22.0899C88.299 24.0951 87.6524 25.7349 86.3593 27.0093C85.0851 28.2648 83.4078 28.8927 81.3276 28.8927C79.2287 28.8927 77.5327 28.2648 76.2396 27.0093C74.9653 25.7349 74.3281 24.0951 74.3281 22.0899C74.3281 20.0847 74.9653 18.4543 76.2396 17.1987C77.5327 15.9244 79.2287 15.2872 81.3276 15.2872ZM79.0788 24.7323C79.641 25.407 80.3906 25.7442 81.3276 25.7442C82.2647 25.7442 83.0048 25.407 83.5484 24.7323C84.1105 24.0577 84.3917 23.1769 84.3917 22.0899C84.3917 21.003 84.1105 20.1222 83.5484 19.4475C83.0048 18.7729 82.2647 18.4356 81.3276 18.4356C80.3906 18.4356 79.641 18.7729 79.0788 19.4475C78.5166 20.1222 78.2354 21.003 78.2354 22.0899C78.2354 23.1769 78.5166 24.0577 79.0788 24.7323Z" fill="white"/>
<path d="M66.8871 15.2872C68.5924 15.2872 69.9417 15.737 70.935 16.6365C71.9469 17.5173 72.4529 18.623 72.4529 19.9535L72.3686 20.9374L68.9672 21.1342C69.0047 21.0592 69.0234 20.8624 69.0234 20.5438C69.0234 19.9442 68.8267 19.4475 68.4331 19.054C68.0583 18.6417 67.5242 18.4356 66.8308 18.4356C65.95 18.4356 65.2379 18.7635 64.6944 19.4194C64.1697 20.0754 63.9074 20.9374 63.9074 22.0056C63.9074 23.1675 64.1978 24.0857 64.7788 24.7604C65.3785 25.4163 66.2311 25.7442 67.3368 25.7442C68.911 25.7442 70.1198 25.229 70.9631 24.1982L72.8464 26.6157C72.3592 27.2342 71.619 27.7683 70.6258 28.2181C69.6325 28.6677 68.4519 28.8927 67.0838 28.8927C64.8912 28.8927 63.1577 28.2742 61.8834 27.0373C60.6278 25.7817 60 24.1513 60 22.1461C60 20.1035 60.6372 18.4543 61.9115 17.1987C63.1858 15.9244 64.8444 15.2872 66.8871 15.2872Z" fill="white"/>
<path d="M168.879 22.8177C169.677 24.2154 170.474 25.3525 171.305 26.5371C171.665 27.0509 172.032 27.5738 172.407 28.1306C172.884 28.8382 172.266 29.686 171.477 29.3598C168.402 28.0875 166.155 25.6934 164.616 23.4395H162.966V28.7243H159.115V8.87827H162.966V20.4317H164.597C165.646 20.4317 166.471 20.1131 167.07 19.4759C167.67 18.8387 167.97 17.9298 167.97 16.7492C167.97 16.4493 167.933 16.0183 167.858 15.4561H171.54C171.634 15.8871 171.681 16.3463 171.681 16.8335C171.681 19.4437 170.515 21.6798 168.879 22.8177Z" fill="white"/>
</g>
</g>
<defs>
<clipPath id="clip0_965_271">
<rect width="128.079" height="26" fill="white" transform="translate(60 8.72812)"/>
</clipPath>
</defs>
</svg>
